<svg id="Layer_1" data-name="Layer 1" xmlns="http://www.w3.org/2000/svg" viewBox="0 0 181 75"><defs><style>.cls-1{fill:#d9d4c0;}</style></defs><title>Artboard 1</title><path class="cls-1" d="M8,43.44C13.54,42.17,15,42,15,32.85V23.18c0-8.63.52-10-8.11-10.23V10.5c10.72-.59,9.86-.76,12.9-7.23h2.75a30.3,30.3,0,0,0-.94,6.66V32.85c0,8.83,1.08,9.22,6.77,10.59V45.9c-3.63-.1-6.73-.49-10.36-.49S11.48,45.8,8,45.9Z"/><path class="cls-1" d="M70.53,7c-4.42,3.33-10.59,14.71-16.68,19.71l.2.19a5.53,5.53,0,0,1,2.26-.39c7.65,0,16.19,6.28,16.19,17.16C72.5,57.3,61.63,70,46,71.35a33,33,0,0,1-17.19-4l1.14-3c1,.45,1.68.69,3.73,1.47a25.61,25.61,0,0,0,11.9,1.67c12-1.85,19.17-11.4,18.75-24.05-.23-7.06-4.72-12.55-11.58-12.55-2.55,0-5.1,1.17-7.36,2.45l-1.86-2.55C53,23,55.83,18.77,61.72,10.53H50.15c-10.89,0-13.36,4.12-16.4,9.51L30.91,19c2.16-5.3,4.12-10.59,6-15.89l2.55.59C40,5,41.3,5,46.7,5c13.14,0,18.43-.1,23.83-.5Z"/><path class="cls-1" d="M88.81,40.53c0-3.44,2.35-5.63,6-5.63a7,7,0,0,1,4,1.13L98.2,37.6a6,6,0,0,0-3.27-1c-2.56,0-4.15,1.54-4.15,3.87s1.64,3.88,4.28,3.88a6,6,0,0,0,3.44-1.06l.7,1.59a7.3,7.3,0,0,1-4.26,1.19C91.15,46.09,88.81,43.94,88.81,40.53Z"/><path class="cls-1" d="M105.07,36.75v2.87h6.62v1.65h-6.62v3h7.65V45.9h-9.58V35.09h9.58v1.66Z"/><path class="cls-1" d="M126.32,44.24V45.9h-9.27V35.09H119v9.15Z"/><path class="cls-1" d="M129.84,44.53l.83-1.52a7.74,7.74,0,0,0,4.5,1.39c2,0,3.06-.54,3.06-1.6,0-.89-.77-1.24-3.17-1.42-3.47-.27-4.74-1.11-4.74-3.16s1.77-3.32,4.75-3.32a7.65,7.65,0,0,1,4.51,1.31l-.76,1.49a6.35,6.35,0,0,0-3.76-1.11c-1.74,0-2.78.57-2.78,1.55s.76,1.24,3.16,1.42c3.48.27,4.75,1.11,4.75,3.16s-1.77,3.37-5,3.37A9,9,0,0,1,129.84,44.53Z"/><path class="cls-1" d="M144.46,35.09h1.93V45.9h-1.93Z"/><path class="cls-1" d="M151.19,41.94V35.09h1.92v6.53c0,1.85,1.06,2.75,3.19,2.75s3.18-.9,3.18-2.75V35.09h1.84v6.85c0,2.65-1.82,4.15-5.06,4.15S151.19,44.59,151.19,41.94Z"/><path class="cls-1" d="M165.26,44.53l.83-1.52a7.71,7.71,0,0,0,4.49,1.39c2,0,3.07-.54,3.07-1.6,0-.89-.78-1.24-3.18-1.42-3.46-.27-4.73-1.11-4.73-3.16s1.76-3.32,4.75-3.32A7.65,7.65,0,0,1,175,36.21l-.76,1.49a6.38,6.38,0,0,0-3.77-1.11c-1.73,0-2.78.57-2.78,1.55s.76,1.24,3.16,1.42c3.48.27,4.75,1.11,4.75,3.16s-1.76,3.37-5,3.37A9,9,0,0,1,165.26,44.53Z"/></svg>