<svg id="Layer_1" data-name="Layer 1" xmlns="http://www.w3.org/2000/svg" viewBox="0 0 188 75"><defs><style>.cls-1{fill:#d8d4c0;}</style></defs><title>celsiuslogo</title><path class="cls-1" d="M17.2,38.33c0,6,.36,8.54,4.41,9.05v2.36c-2.94-.15-5.3-.37-8-.37s-5.08.22-8,.37V47.38c4-.51,4.41-3.09,4.41-9.05V18.76c0-6-.36-8.54-4.41-9.06V7.34c2.94.15,5.29.37,8,.37s5.08-.22,8-.37V9.7c-4.05.52-4.41,3.09-4.41,9.06Z"/><path class="cls-1" d="M66.42,9.73C62.11,13,56.08,24.09,50.14,29l.19.19a5.32,5.32,0,0,1,2.21-.38c7.47,0,15.13,6.12,15.13,16.75C67.67,58.85,55.32,69.1,41,69.1a39,39,0,0,1-15.7-3.73L27,61.82c3.73,1.63,7.85,3.07,12,3.07,11.3,0,20.78-8.43,20.78-19.63,0-6.9-3.93-12.26-10.63-12.26-2.49,0-5,1.15-7.18,2.39L40.09,32.9C49.28,25.34,51.48,22.08,57.23,14H45.93C35.3,14,33.48,17.2,30.51,22.47l-2.78-1.06c2.11-5.17,4-10.34,5.85-15.51l2.48.57c.58,1.34,1.82,1.34,7.09,1.34,12.83,0,18-.09,23.27-.48Z"/><path class="cls-1" d="M93.09,46l2.17,1.09a6.71,6.71,0,0,1-5.71,2.66c-3.92,0-6.46-2.07-6.46-5.53s2.54-5.54,6.56-5.54a6.62,6.62,0,0,1,5.58,2.65L93,42.41a3.72,3.72,0,0,0-3.42-1.69c-2.47,0-4.11,1.2-4.11,3.49s1.64,3.48,4.11,3.48A3.8,3.8,0,0,0,93.09,46Z"/><path class="cls-1" d="M110.75,47.42v2H100V39H110.6v2h-8.21v2.14h6.85v2h-6.85v2.29Z"/><path class="cls-1" d="M125.52,47.36v2h-9.74V39h2.38v8.36Z"/><path class="cls-1" d="M141.22,46.26c0,2.05-1.95,3.48-5.64,3.48a9.56,9.56,0,0,1-6.37-2.1L130.58,46a7.09,7.09,0,0,0,5.06,1.73c2.11,0,3.19-.41,3.19-1.27s-1.08-1.1-3.47-1.31c-3-.25-5.74-.9-5.74-3.14s2.32-3.36,5.53-3.36a9.13,9.13,0,0,1,5.56,1.59l-1.3,1.66a6.81,6.81,0,0,0-4.26-1.25c-1.41,0-3.14.23-3.14,1.19s1.49,1,3.56,1.14C138.88,43.27,141.22,44,141.22,46.26Z"/><path class="cls-1" d="M146.13,49.41V39h2.38V49.41Z"/><path class="cls-1" d="M165.8,39v5.5c0,3.13-2.07,5.24-5.85,5.24s-5.84-2.11-5.84-5.24V39h2.38v5.33c0,2.08,1.22,3.33,3.46,3.33s3.47-1.25,3.47-3.33V39Z"/><path class="cls-1" d="M182.43,46.26c0,2.05-1.94,3.48-5.63,3.48a9.52,9.52,0,0,1-6.37-2.1L171.8,46a7.09,7.09,0,0,0,5.06,1.73c2.11,0,3.18-.41,3.18-1.27s-1.07-1.1-3.47-1.31c-3-.25-5.74-.9-5.74-3.14s2.32-3.36,5.54-3.36a9.17,9.17,0,0,1,5.56,1.59l-1.31,1.66a6.8,6.8,0,0,0-4.25-1.25c-1.42,0-3.14.23-3.14,1.19s1.48,1,3.55,1.14C180.1,43.27,182.43,44,182.43,46.26Z"/></svg>