<svg id="Layer_1" data-name="Layer 1" xmlns="http://www.w3.org/2000/svg" viewBox="0 0 320.4 164"><defs><style>.cls-1,.cls-2{fill:#1e0d1b;}.cls-1{opacity:0.9;}</style></defs><title>mvscpurple</title><path class="cls-1" d="M194.37,58.19l0-6.63,0-14.42-6-6.24c-5-.13-7.52-.18-12.3-.25l-1.54,1.52L170,36.64l-.06,21,2.8,2.83L176,63.83c4.79.07,7.32.11,12.3.24l5.49-5.31Zm-6.82-19,0,16.2-1.1,2.17-2.21,1-4.12-.08-.75-.39c-.52-.26-.78-.4-1.29-.67l-.14-.07-.07-.14-.55-1.12-.48-.94,0-7.92c0-2.5,0-5,0-8.28v-.11l1.1-2.18.14-.07,2-.94.1-.05,1,0,3,.06h.11l.1,0,2,1,.13.07.31.64c.13.25.24.48.4.81s.15.29.21.42l.17.34Z"/><path class="cls-1" d="M200.07,131.23l-2.3-4L194.05,117l5.45-5.44,0-7.89L194,98.06H174.78l.83,3.43-.09,26.43-.83,3.31h8.05l-.83-3.43,0-9,.76-.76h4l1.25.63L192,131.23Zm-11.21-18.06h-6.15l-.76-.77,0-8.67.77-.77h6.15l2.67,1.34,1.1,2.19v3.15l-1.11,2.18Z"/><path class="cls-1" d="M179.1,56.93l0-.1,0-16.08,1-1.94,1.95-.94,3.9.08,0,0,0-.06-.18-.37L184,36.65l-2.86-.06-.82,0-1.71.82-.85,1.69c0,3.27,0,5.71,0,8.17l0,7.7.37.74.49,1Z"/><polygon class="cls-1" points="184.19 112.22 184.21 105.69 184.7 105.21 190.55 105.21 191.1 105.48 190.86 105 188.66 103.91 183.13 103.91 182.91 104.12 182.89 112.01 183.1 112.22 184.19 112.22"/><path class="cls-1" d="M167.29,125.66l0-8.14L163,113.18l3.86-3.85,0-6.19-5.07-5.08H143.1l.83,3.43-.09,26.43-.83,3.31H161.7Zm-17-22.18.76-.76h6.16l2.19,1.09,1.09,2.19v1.69l-1.1,2.19L157.19,111H151l-.76-.76Zm10.15,19.07-1.1,2.19-2.68,1.34h-5.42l-1-1,0-8.43.77-.76h5.67l2.67,1.34,1.09,2.19Z"/><polygon class="cls-1" points="169.1 104.72 167.81 103.42 167.78 109.72 164.32 113.18 165.75 114.62 169.09 111.3 169.1 104.72"/><path class="cls-1" d="M145,40l1.35-2.69L149,36h1.25l5.56,0,.15,0,4.13,1.4-2.26-6.82c-5.17,0-7.85,0-13.13.09l-5.45,5.5-1.13,1.15,0,20.57,1.8,1.78,3.77,3.71.47.47c4.64-.06,7.09-.09,11.82-.1,2.39-2.39,3.67-3.65,6.06-6L161.58,55V48.46l.26-.51.29-.55.63-1.27c-3.55,0-5.65,0-9.21,0,.36.73.65,1.3,1,2l.67,1.36,0,7.13-1.75,1.74h-.19l-4.16,0h-.83l-.75-.37-.83-.41-.61-.29L145,55.11V55Z"/><polygon class="cls-1" points="120.13 124.28 120.09 124.22 120.14 108.13 121.12 106.18 123.07 105.21 126.97 105.21 127.03 105.24 126.79 104.76 125.09 103.91 121.41 103.91 119.7 104.76 118.84 106.47 118.8 122.33 119.65 124.04 120.13 124.28"/><path class="cls-1" d="M195.33,51.56l0,7-.88.84c-2.08,2-3.34,3.22-5.62,5.45l-.14.14h-.2c-5-.13-7.54-.18-12.2-.25l1.29,1.3c5.08.07,7.61.12,12.69.25,2.54-2.47,3.82-3.7,6.36-6.15l.06-21.45-1.3-1.34Q195.36,44.47,195.33,51.56Z"/><path class="cls-1" d="M129.31,131.23l6.08-6.06.06-21-6-6.06H117.13l-6.08,6.06-.06,21,6,6.06Zm-11.46-8.79.05-16.19,1.1-2.19,2.19-1.1h4.12l2.19,1.1,1.09,2.19v.11l-.05,16.19-1.1,2.19-2.19,1.1h-4.12l-2.19-1.1-1.09-2.19Z"/><path class="cls-1" d="M163.79,46.2,163,47.82l-.29.56-.16.31v6.23L163,58l-.24.23-6.3,6.28-.14.13h-.19c-4.77,0-7.23,0-11.76.09l1.32,1.3c4.88-.06,7.32-.08,12.21-.09l6.36-6.34c-.19-1.17-.29-1.75-.48-2.92,0-2.54,0-3.81,0-6.34l.5-1,1-2L163.89,46Z"/><path class="cls-1" d="M161.62,38.85l-.9-.3-4.94-1.68c-2.23,0-3.53,0-5.48,0h-1L147.07,38,146,40.24l0,14.64.85,1.7.32.15.15.08,0,0c0-6,0-8.92,0-14.87l1.23-2.45,2.44-1.24c2.67,0,4,0,6.69,0l5,1.71c-.81-2.45-1.2-3.67-2-6.1l-.65-2-1-1Z"/><path class="cls-1" d="M229.08,40.2l-1.3-1.38v5q0,8-.05,16v.2l-.15.14-6.35,6-.15.14h-.2c-4.91-.26-7.41-.38-12.16-.59L210,67c5.07.22,7.6.34,12.68.61l6.35-6Q229,50.92,229.08,40.2Z"/><path class="cls-1" d="M211.55,58l-.08-.16.05-16.08,1-1.91,1.95-.88,3.89.19-.16-.36-1.73-.95-3.68-.18-1.69.77-.86,1.66,0,15.86c.19.41.34.71.5,1l.36.73Z"/><path class="cls-1" d="M242.88,39.61l2.21-1h.11c2.54.2,3.81.29,6.34.5l.14,0,3.43,1.42-2-6.23c-4.68-.39-7.16-.58-12.14-.94-2.39,2.21-3.65,3.39-6.05,5.62l0,6.92,4.41,4.71c2.84.87,4.3,1.31,7.18,2.21l.12,0L248.52,55v3.47l-1.11,2.13-.54.23-1.56.66-.11.05h-.12c-2.69-.21-4-.31-6.72-.49l-.14,0-4-1.66,2.25,6.95.9.06c4.93.34,7.35.52,12,.89,2.38-2.2,3.65-3.36,6-5.54l0-8.63L251,48.32,244,46.16l-.08,0-.14,0-.14,0L241.76,44V41.74Z"/><path class="cls-1" d="M239.75,51.84l1.07,1.06L247,54.81l-.95-1Z"/><path class="cls-1" d="M278.88,56.76l-4.24-1.86-3.84-.38-.18.16,0,7.65.49.53.82.08c0-2.38,0-4,0-6.7l.49-.44,4.12.41,3.65,1.6c0-2.28,0-3.41,0-5.68,0-1,0-1.57,0-2.6l-1.3-1.31Z"/><path class="cls-1" d="M282.47,38.48l2.09,6.57-1-.43-2.83-1.26-1.47-.65c-3.38-.36-5.12-.53-8.46-.86l-.18.16v5.45l.24.27,1.06.1c0-1.41,0-2.51,0-4.26l.49-.44c3.5.34,5.25.52,8.75.89L285.56,46c-.71-2.22-1.06-3.34-1.77-5.56-.26-.81-.38-1.21-.64-2l-1-1C282.21,37.69,282.32,38,282.47,38.48Z"/><path class="cls-1" d="M234.8,131.23l-1.63-3.31-7.27-27.16.63-2.7h-12l.62,2.71,0,.11L207.73,128l-1.62,3.22h7.72l-.42-3.46,1-4.11.72-.71h9.64l.72.71,1,4.11-.44,3.46ZM223.13,118h-6.24l-.81-.81,3.26-13.42.71-4.23.7,4.26,3.19,13.39Z"/><polygon class="cls-1" points="152.52 110.03 152.53 105.45 153.02 104.97 158.87 104.97 158.93 105 158.69 104.52 156.99 103.66 151.44 103.66 151.23 103.88 151.22 109.82 151.42 110.03 152.52 110.03"/><path class="cls-1" d="M124.06,64.24l.68,0,4.91-.14.1-29.87.83-3.33c-2.73.07-4.35.12-7.09.21.16.6.28,1.1.41,1.62l.43,1.79,0,13.16.56,5.65-2.2-5.45c-2.21-4.38-3.62-7.15-5.42-10.71l-2.92-5.74c-3.4.13-5.28.21-8.59.37l1,3.33v.07l-.09,26.43-.83,3.33L109,64.8l4-.17-.84-3.41,0-17.06-.56-5.63,2.2,5.43L115,46.3Q119.53,55.27,124.06,64.24Z"/><polygon class="cls-1" points="152.48 125.14 152.49 118.61 152.98 118.12 158.35 118.12 158.9 118.4 158.66 117.92 156.46 116.82 151.41 116.82 151.2 117.03 151.18 124.68 151.63 125.14 152.48 125.14"/><polygon class="cls-1" points="220.89 108.49 220.04 104.92 217.12 116.94 217.28 117.1 218.79 117.1 220.89 108.49"/><path class="cls-1" d="M208.49,31.59c-2.4,2.29-3.67,3.5-6.07,5.81l0,6.92,0,14.13,2.27,2.37,3.79,3.94c4.9.22,7.39.34,12.29.6,2.39-2.26,3.66-3.45,6.06-5.7q0-7.92,0-15.84l0-5.21-.63-.66c-2-2.14-3.25-3.45-5.44-5.76C215.75,31.92,213.23,31.8,208.49,31.59ZM220,40.42l0,16.2-1.11,2.15-2.21,1h-.11l-3.9-.19h-.1l-2.18-1.19-.49-1-.55-1.13-.05-.1V56l0-16.2,1.12-2.15,2.2-1h.12l3.9.19h.1l2.18,1.2.07.14c.25.53.38.8.65,1.33.12.27.18.4.31.66l.06.1Z"/><path class="cls-1" d="M264.31,68.55c6.7.63,10.18,1,17.14,1.72l2.29-6.6-4.28,1h-.15L272,63.9l-1.4-.13-1-1.08,0-8.43.8-.72L275,54l3,1.31,0-7-.78.18-2.3.52-.07,0h-.08l-2.67-.26-1.45-.15-.18,0-.74-.81,0-6.23.8-.72.2,0c3.51.34,5.26.52,8.76.89l.14,0,1.53.67,1.88.84-1.45-4.56L281,37c-6.08-.65-12.29-1.27-18.48-1.83l.82,3.47-.08,26.43-.85,3.27,1.79.16Z"/><polygon class="cls-1" points="136.34 125.56 129.7 132.17 117.31 132.17 118.61 133.47 131.28 133.47 137.63 127.14 137.69 105.69 136.39 104.39 136.34 125.56"/><polygon class="cls-1" points="168.23 126.05 162.09 132.17 142.87 132.17 144.17 133.47 146.42 133.47 163.67 133.47 169.53 127.62 169.55 119.1 168.25 117.8 168.23 126.05"/><path class="cls-1" d="M114.33,63c0-6.38,0-9.78,0-15.77-.08-.17-.16-.33-.25-.49l-1-2.07,0,16.5,1.09,4.37-.58,0-4.52.19-3.34.15L107,67.21l2.43-.11,5.86-.25C114.91,65.31,114.72,64.54,114.33,63Z"/><path class="cls-1" d="M100.49,61.21q0-10.73.06-21.44l-1.3-1.31,0,5.38q0,7.8,0,15.6v.18l-.13.14c-2.54,2.66-3.81,4-6.34,6.67l-.13.14-.2,0c-4.93.29-7.47.45-12.36.79l1.43,1.33c5.06-.36,7.6-.52,12.67-.81C96.67,65.22,97.94,63.88,100.49,61.21Z"/><polygon class="cls-1" points="184.17 120.8 184.66 120.32 187.44 120.32 187.13 119.36 186.43 119.02 183.08 119.02 182.87 119.23 182.85 127.74 183.94 132.17 174.55 132.17 175.85 133.47 178.1 133.47 185.11 133.47 184.15 129.57 184.17 120.8"/><path class="cls-1" d="M68.19,37.55c.2-.79.3-1.2.49-2L67.3,34.18l-.9,3.64L66.33,64l1.08,4.31-.55,0c-2.31.18-3.61.29-5.67.47l-2.94.25,1.33,1.34L62,70.23c2.62-.23,3.94-.34,6.57-.55-.38-1.53-.58-2.3-1-3.82q0-13.15.07-26.32C67.9,38.74,68,38.35,68.19,37.55Z"/><polygon class="cls-1" points="102.53 132.17 89.99 132.17 91.29 133.47 103.96 133.47 105.75 128.13 106.66 125.43 105.26 124.03 102.53 132.17"/><polygon class="cls-1" points="196.36 118.86 201.74 113.49 201.76 105.21 200.46 103.9 200.44 111.91 195.14 117.21 198.65 126.87 201.7 132.17 192.09 132.17 193.39 133.47 194.61 133.47 202.66 133.47 199.99 128.84 196.36 118.86"/><path class="cls-1" d="M255.23,35.73l-1-1,2.44,7.61-5.24-2.18-6.14-.49-1.69.72L242.71,42v1.65L244,45V43.63l1-1.88,1.95-.83c2.53.19,3.8.29,6.33.5l4.37,1.82c-.7-2.21-1.06-3.31-1.76-5.52Z"/><path class="cls-1" d="M284.83,63.4l-2.74,7.88-.37,0c-7.2-.77-10.68-1.11-17.5-1.75h-.08l-1.78-.16,1.25,1.25c1,.1,1.46.14,2.43.22,7,.66,10.51,1,17.5,1.76l1.71-4.93c.4-1.13.59-1.69,1-2.82Z"/><path class="cls-1" d="M256.29,62.15l-.15.14c-2.54,2.32-3.81,3.48-6.34,5.81l-.16.14-.2,0c-4.76-.37-7.18-.56-12.09-.89l-.76,0,1.26,1.26,1.3.09c4.84.33,7.25.51,12.1.9,2.53-2.33,3.8-3.5,6.34-5.82,0-3.6,0-5.41,0-9l-1.29-1.41Z"/><polygon class="cls-1" points="228.16 102.53 228.48 101.16 228.9 99.36 227.52 97.98 226.87 100.75 234.07 127.63 236.33 132.17 226.04 132.17 227.34 133.47 229.37 133.47 237.34 133.47 235.4 129.57 228.16 102.53"/><path class="cls-1" d="M130.67,34.38,130.59,65h-.46c-2.14.06-3.22.08-5.36.15l-.54,0,1.31,1.31,1,0,5.37-.15q0-15.11.08-30.22l.5-2c.19-.78.29-1.17.49-2l-1.38-1.38Z"/><polygon class="cls-1" points="224.68 124.14 224.42 123.89 215.56 123.89 215.3 124.15 214.37 127.83 214.9 132.17 205.82 132.17 207.12 133.47 209.81 133.47 216.14 133.47 215.66 129.57 216.65 125.68 217.13 125.19 224.94 125.19 224.68 124.14"/><path class="cls-1" d="M83,59.29c0-6.39,0-9.61,0-16l1-2,2-1.11,3.9-.25L90,40l-.32-.62L88,38.6l-3.68.23-1.57.89-.16.09-.87,1.79,0,15.86.84,1.63Z"/><path class="cls-1" d="M66.3,34.31c-3.29.27-5.16.43-8.56.73L51.16,50.47c0,.11-.09.21-.14.35L50.32,54l-.72-3.22c-2.33-5.11-3.51-7.69-5.86-12.81L43,36.45c-3.39.34-5.27.55-8.6.91.16.63.28,1.13.42,1.66l.42,1.73L35.2,66.89l0,.29-.31,1.27c-.18.7-.33,1.3-.52,2.08l1.76-.19c2.15-.24,3.31-.36,5.3-.56l-.32-1.25c-.15-.62-.3-1.21-.51-2V66.3l0-17.46-.71-5.66L42,48.63l1.78,3.93,6.11,13.5.13-.31L54.5,55.12,57.92,47l2.16-5.91-.77,6.11-.06,17.6-.82,3.34,2.68-.23c1.89-.17,3.14-.27,5.12-.43l-.85-3.4.09-26.43Z"/><polygon class="cls-1" points="101.85 131.23 104.14 124.41 99.76 125.84 94.05 125.84 91.38 124.5 90.05 121.82 90.05 121.71 90.08 107.46 91.43 104.79 94.11 103.45 99.58 103.47 103.71 104.88 101.45 98.06 89.81 98.06 83.23 104.61 83.18 124.68 89.71 131.23 101.85 131.23"/><path class="cls-1" d="M58.37,48.36l-3,7.12L50.9,66.12l-.55,1.29h-.12l1.33,1.33.24,0c.18-.41.26-.62.43-1q3.06-7.29,6.13-14.55Z"/><path class="cls-1" d="M118.07,36.72l5.28,10.43v-.68c-2.09-4.14-3.55-7-6-11.86l-1-1.91-.7-.7Z"/><polygon class="cls-1" points="105.2 106.38 99.36 104.39 94.33 104.39 92.13 105.49 91.03 107.69 90.99 121.6 92.08 123.8 92.56 124.04 92.29 123.48 92.33 109.35 93.55 106.91 95.99 105.69 101.2 105.69 106.22 107.4 104.16 101.16 103.56 99.36 102.53 98.33 105.2 106.38"/><path class="cls-1" d="M92.15,65.66c2.41-2.55,3.68-3.88,6.1-6.41q0-7.71,0-15.41l0-5.65L98.05,38l-5.77-5.46c-4.87.28-7.41.44-12.28.78l-5.11,5.46-1,1.07-.06,21.05,1.79,1.67,4.23,3.93C84.76,66.11,87.3,66,92.15,65.66ZM80.7,57.57l0-16.19,1.09-2.24.41-.24L83.92,38,84,37.9l4.13-.26.1,0,2,.86.15.06,1.1,2.14v.12l0,16.18L90.3,59.3l-.13.07-1.9,1.06-.09.06-.16,0-3.9.25H84l-1.18-.51c-.28-.12-.51-.23-.87-.37l-.16-.07-1.1-2.15Z"/><path class="cls-1" d="M42.85,52.77l-1.3-2.88,0,16.44.5,2,.58,2.3-.54.06-5.84.61-2.05.22,1.35,1.35,2.42-.26c2.34-.26,3.5-.38,5.84-.62-.39-1.52-.57-2.28-1-3.8C42.83,61.9,42.84,58.42,42.85,52.77Z"/><path class="cls-1" d="M44.59,37.61c2.3,5,3.48,7.59,5.71,12.48l.22-.51c-1.58-3.43-2.71-5.9-4.59-10l-.85-1.86-.81-.81Z"/><path class="cls-2" d="M133.39,86.46h-2.66l-2.9-7.75h3l1.48,4.57,1.52-4.57h2.56Z"/><path class="cls-2" d="M139.34,86.46V78.71H146v2h-3.84v1.18h2.52v1.23h-2.52v1.19H146v2.15Z"/><path class="cls-2" d="M154.6,86.46c-.39,0-.62-.57-.62-1.2V84.2a.59.59,0,0,0-.63-.66h-1.11v2.92h-2.77V78.71H154c1.56,0,2.62.87,2.62,2.07v.27a1.7,1.7,0,0,1-1.34,1.66,1.57,1.57,0,0,1,1.38,1.58v.88a2.29,2.29,0,0,0,.34,1.25v0Zm-.69-5.18c0-.48-.24-.67-.81-.67h-.86v1.64h.86c.57,0,.81-.22.81-.68Z"/><path class="cls-2" d="M163.6,86.64a6.15,6.15,0,0,1-4-1.43l1.29-1.49a4.83,4.83,0,0,0,2.77,1.12c.68,0,.9-.25.9-.58,0-1-4.45-.58-4.45-3.22,0-1.34,1.36-2.52,3.51-2.52A5,5,0,0,1,167.25,80l-1.46,1.25a3.71,3.71,0,0,0-2.2-.9c-.57,0-.87.21-.87.51,0,1,4.51.7,4.51,3.21C167.23,85.5,165.68,86.64,163.6,86.64Z"/><path class="cls-2" d="M174.29,86.64c-2.5,0-3.78-1.31-3.78-2.9v-5h2.78v4.9c0,.6.4,1,1.11,1s1.1-.38,1.1-1v-4.9H178v5C178,85.33,176.81,86.64,174.29,86.64Z"/><path class="cls-2" d="M184.91,86.64a6.19,6.19,0,0,1-4-1.43l1.29-1.49A4.86,4.86,0,0,0,185,84.84c.69,0,.91-.25.91-.58,0-1-4.45-.58-4.45-3.22,0-1.34,1.36-2.52,3.51-2.52A5.05,5.05,0,0,1,188.57,80l-1.47,1.25a3.71,3.71,0,0,0-2.2-.9c-.57,0-.87.21-.87.51,0,1,4.52.7,4.52,3.21C188.55,85.5,187,86.64,184.91,86.64Z"/><rect class="cls-2" x="195.26" y="82.01" width="34.61" height="0.79"/><rect class="cls-2" x="195.26" y="79.86" width="37.61" height="0.45"/><rect class="cls-2" x="195.26" y="84.49" width="37.61" height="0.45"/><rect class="cls-2" x="85.5" y="82.01" width="34.61" height="0.79"/><rect class="cls-2" x="82.5" y="79.86" width="37.61" height="0.45"/><rect class="cls-2" x="82.5" y="84.49" width="37.61" height="0.45"/></svg>