<svg id="Layer_1" data-name="Layer 1" xmlns="http://www.w3.org/2000/svg" viewBox="0 0 320.4 164"><defs><style>.cls-1,.cls-2{fill:#1f101c;}.cls-1{opacity:0.9;}</style></defs><title>purplemvsc</title><path class="cls-1" d="M188.93,47.73l0-5.58L189,30l-5.09-5.25c-4.2-.11-6.32-.15-10.34-.2l-1.3,1.27-3.82,3.76-.05,17.7,2.36,2.38,2.74,2.78c4,.06,6.16.1,10.34.21,1.85-1.8,2.91-2.81,4.62-4.47Zm-5.73-16,0,13.62-.93,1.82-1.86.88L176.92,48l-.63-.32-1.09-.57-.12-.06-.05-.11c-.19-.39-.33-.66-.47-.94l-.4-.8,0-6.66c0-2.1,0-4.17,0-7v-.09l.92-1.84.12-.06,1.64-.78.09,0h.88l2.5,0h.09l.08,0,1.65.86.11.06.26.54.34.67c.07.16.12.25.17.36l.14.29Z"/><path class="cls-1" d="M193.73,109.14l-1.93-3.36-3.14-8.63,4.59-4.58V85.93l-4.67-4.68H172.46l.7,2.88-.08,22.23-.7,2.78h6.77l-.7-2.88,0-7.54.65-.64h3.33l1.05.53,3.41,10.53ZM184.3,94h-5.17l-.64-.65,0-7.29.64-.65h5.17l2.25,1.13.92,1.84V91l-.93,1.84Z"/><path class="cls-1" d="M176.09,46.66a.3.3,0,0,0,0-.08c0-5.41,0-8.12,0-13.53l.83-1.63,1.63-.78,3.29.06,0,0,0,0-.15-.31-1.44-.76-2.41,0-.69,0-1.43.69L175,31.66c0,2.74,0,4.79,0,6.86L175,45l.31.62.41.83Z"/><polygon class="cls-1" points="180.38 93.16 180.39 87.67 180.8 87.26 185.72 87.26 186.18 87.49 185.98 87.09 184.14 86.17 179.48 86.17 179.3 86.35 179.28 92.98 179.46 93.16 180.38 93.16"/><path class="cls-1" d="M166.16,104.46l0-6.84L162.54,94l3.25-3.24v-5.2l-4.26-4.28H145.82l.7,2.88-.08,22.23-.7,2.78h15.72ZM151.87,85.81l.64-.64h5.18l1.84.92.91,1.84v1.42l-.93,1.84-1.84.92h-5.18l-.64-.64Zm8.54,16-.93,1.84-2.25,1.13h-4.57l-.84-.85V96.88l.65-.64h4.77l2.25,1.12.91,1.84Z"/><polygon class="cls-1" points="167.69 86.85 166.59 85.76 166.58 91.06 163.66 93.97 164.87 95.18 167.67 92.38 167.69 86.85"/><path class="cls-1" d="M147.43,32.44l1.14-2.26L150.82,29h1l4.68,0,.13,0,3.47,1.17-1.9-5.73c-4.35,0-6.6,0-11,.07l-4.58,4.64-1,1,0,17.3,1.52,1.49c1.29,1.27,2,2,3.17,3.12l.4.4c3.89,0,5.95-.07,9.93-.08,2-2,3.09-3.08,5.1-5.07L161.36,45v-5.5l.22-.43.24-.46.53-1.07h-7.75l.83,1.65.57,1.14,0,6-1.47,1.46h-.17l-3.49,0h-.7l-.63-.31-.7-.35-.51-.25-.92-1.83V45Z"/><polygon class="cls-1" points="126.5 103.3 126.47 103.25 126.51 89.72 127.33 88.08 128.98 87.26 132.25 87.26 132.31 87.29 132.11 86.89 130.67 86.17 127.58 86.17 126.14 86.89 125.42 88.33 125.38 101.66 126.1 103.1 126.5 103.3"/><path class="cls-1" d="M189.74,42.15l0,5.91-.73.71-4.73,4.59-.12.11H184c-4.21-.11-6.34-.15-10.26-.21l1.09,1.09c4.27.06,6.4.1,10.67.21l5.34-5.18.06-18-1.1-1.13Z"/><path class="cls-1" d="M134.22,109.14l5.12-5.09,0-17.71-5.09-5.09H124l-5.12,5.1,0,17.7,5.09,5.09Zm-9.63-7.39,0-13.61.92-1.84,1.84-.93h3.47l1.84.93.91,1.84v.09l0,13.62-.93,1.84-1.84.92h-3.47l-1.84-.92-.91-1.84Z"/><path class="cls-1" d="M163.22,37.64,162.54,39l-.25.48-.13.25V45l.43,2.59-.19.2L157.09,53l-.12.12h-.16c-4,0-6.08,0-9.89.08l1.11,1.1c4.11,0,6.16-.07,10.27-.08,2.13-2.14,3.21-3.21,5.35-5.33-.16-1-.25-1.48-.41-2.46,0-2.13,0-3.2,0-5.33.16-.33.25-.49.41-.81l.83-1.64-1.2-1.2Z"/><path class="cls-1" d="M161.39,31.46l-.75-.26-4.16-1.41-4.61,0H151l-1.85.94-.93,1.87,0,12.31.71,1.43.27.13.13.06s0,0,0,0c0-5,0-7.51,0-12.5l1-2.07,2.05-1c2.25,0,3.38,0,5.63,0,1.69.56,2.54.85,4.22,1.43-.68-2.05-1-3.08-1.69-5.13L160,25.56l-.86-.87Z"/><path class="cls-1" d="M218.12,32.59,217,31.43v4.21q0,6.75,0,13.49v.18l-.12.11-5.35,5-.12.12h-.17c-4.13-.22-6.23-.32-10.23-.49l1.08,1.07c4.26.19,6.39.29,10.66.52,2.14-2,3.2-3,5.35-5Q218.1,41.61,218.12,32.59Z"/><path class="cls-1" d="M203.39,47.53l-.07-.13c0-5.41,0-8.11,0-13.53.32-.64.5-1,.83-1.6l1.64-.74,3.27.15-.15-.29-1.45-.8c-1.22-.07-1.87-.1-3.09-.15l-1.43.64-.72,1.4,0,13.34c.16.34.29.59.42.86l.3.61Z"/><path class="cls-1" d="M229.73,32.1l1.86-.8h.09l5.33.42.12,0L240,33l-1.69-5.24c-3.93-.33-6-.49-10.2-.8L223,31.65l0,5.82,3.7,4c2.4.72,3.62,1.1,6,1.85l.11,0,1.6,1.74V48l-.94,1.79-.46.19-1.31.56-.09,0h-.09c-2.27-.18-3.4-.26-5.66-.41l-.12,0-3.38-1.4,1.89,5.85.76,0c4.14.28,6.17.44,10.07.75,2-1.85,3.07-2.82,5.08-4.66l0-7.26-3.7-4-5.84-1.81-.06,0-.12,0-.11,0-1.62-1.74V33.89Z"/><path class="cls-1" d="M227.1,42.38l.9.9c2.13.64,3.34,1,5.23,1.6l-.8-.86C230.29,43.35,229.07,43,227.1,42.38Z"/><path class="cls-1" d="M260,46.52,256.44,45l-3.23-.33-.15.14,0,6.43.4.45.69.07c0-2,0-3.33,0-5.63l.41-.38,3.47.35,3.06,1.34c0-1.91,0-2.86,0-4.77V40.44L260,39.34Z"/><path class="cls-1" d="M263,31.15l1.76,5.52-.81-.36-2.39-1.06-1.23-.54c-2.84-.31-4.31-.45-7.12-.73l-.15.13V38.7l.2.22.9.09c0-1.19,0-2.11,0-3.58l.41-.37,7.36.75,3.67,1.63-1.48-4.68-.55-1.69-.87-.88Z"/><path class="cls-1" d="M222.94,109.14l-1.38-2.77-6.11-22.84.53-2.28H205.92l.52,2.28,0,.09-6.24,22.82-1.36,2.7h6.49l-.35-2.9.87-3.46.61-.6h8.11l.6.6.86,3.46-.38,2.9Zm-9.82-11.08h-5.25l-.68-.69,2.75-11.28.59-3.56.59,3.59,2.68,11.25Z"/><polygon class="cls-1" points="153.74 91.32 153.75 87.47 154.16 87.06 159.08 87.06 159.13 87.08 158.93 86.68 157.5 85.96 152.84 85.96 152.66 86.14 152.64 91.14 152.82 91.32 153.74 91.32"/><path class="cls-1" d="M129.81,52.81l.57,0,4.13-.12.08-25.12.7-2.79-6,.17c.13.51.23.93.34,1.36L130,27.8l0,11.07.47,4.75L128.62,39l-4.56-9-2.45-4.83c-2.86.11-4.44.18-7.22.31l.88,2.8v.06l-.08,22.23-.7,2.8,2.64-.12,3.32-.14-.71-2.87,0-14.35-.47-4.73,1.85,4.57,1,2Q126,45.28,129.81,52.81Z"/><polygon class="cls-1" points="153.71 104.02 153.72 98.53 154.13 98.13 158.64 98.13 159.1 98.36 158.9 97.95 157.06 97.03 152.81 97.03 152.63 97.21 152.61 103.64 152.99 104.02 153.71 104.02"/><polygon class="cls-1" points="211.24 90.03 210.52 87.03 208.06 97.13 208.2 97.26 209.47 97.26 211.24 90.03"/><path class="cls-1" d="M200.81,25.35c-2,1.93-3.09,2.95-5.1,4.89l0,5.82,0,11.88,1.91,2,3.19,3.32c4.12.18,6.22.28,10.33.5l5.1-4.79q0-6.66,0-13.32V31.26l-.53-.56c-1.69-1.8-2.74-2.9-4.57-4.84C206.91,25.63,204.79,25.53,200.81,25.35Zm9.66,7.43,0,13.62-.93,1.81-1.86.83h-.1l-3.27-.16h-.09l-1.83-1-.41-.84c-.15-.29-.28-.57-.47-1l0-.08v-.09l0-13.63.94-1.81,1.85-.84h.09l3.28.16h.1l1.83,1,.05.12.55,1.12c.1.23.16.33.27.55l0,.09Z"/><path class="cls-1" d="M247.75,56.44c5.64.52,8.56.81,14.41,1.44l1.93-5.55-3.59.82-.07,0h-.07c-2.45-.26-3.67-.39-6.13-.63l-1.17-.12-.82-.9,0-7.09.67-.61,3.77.4,2.51,1.1,0-5.87-.66.16-1.93.44-.06,0h-.07l-2.24-.23-1.22-.12-.16,0-.61-.67V33.76l.68-.6h.17l7.36.75.12,0,1.28.57,1.58.7-1.21-3.83c-.19-.59-.3-.92-.46-1.45-5.12-.55-10.34-1.07-15.54-1.54l.69,2.91-.08,22.23-.71,2.75,1.51.14Z"/><polygon class="cls-1" points="140.13 104.38 134.55 109.94 124.13 109.94 125.22 111.03 135.88 111.03 141.22 105.7 141.27 87.67 140.18 86.58 140.13 104.38"/><polygon class="cls-1" points="166.95 104.79 161.79 109.94 145.63 109.94 146.72 111.03 148.61 111.03 163.12 111.03 168.04 106.11 168.06 98.94 166.97 97.85 166.95 104.79"/><path class="cls-1" d="M121.63,51.76c0-5.36,0-8.22,0-13.27l-.21-.4-.89-1.75,0,13.88.91,3.67-.48,0-3.81.16-2.8.13,1.11,1.11,2-.09,4.92-.21C122.12,53.71,122,53.06,121.63,51.76Z"/><path class="cls-1" d="M110,50.26q0-9,.05-18l-1.1-1.1v4.53q0,6.56,0,13.11v.16l-.1.11c-2.14,2.24-3.21,3.37-5.34,5.62l-.11.11-.17,0c-4.14.24-6.28.38-10.39.66L94,56.57c4.26-.3,6.4-.44,10.66-.69C106.78,53.63,107.84,52.5,110,50.26Z"/><polygon class="cls-1" points="180.36 100.38 180.77 99.97 183.11 99.97 182.85 99.17 182.26 98.87 179.44 98.87 179.26 99.05 179.25 106.22 180.17 109.94 172.27 109.94 173.36 111.03 175.25 111.03 181.15 111.03 180.34 107.75 180.36 100.38"/><path class="cls-1" d="M82.83,30.36c.16-.66.24-1,.41-1.67l-1.16-1.16-.76,3.07-.06,22,.91,3.62-.47,0-4.77.39-2.47.22L75.58,58l2-.18,5.53-.47c-.32-1.28-.49-1.93-.81-3.21L82.41,32C82.58,31.37,82.66,31,82.83,30.36Z"/><polygon class="cls-1" points="111.7 109.94 101.15 109.94 102.25 111.03 112.9 111.03 114.41 106.54 115.18 104.27 114 103.09 111.7 109.94"/><polygon class="cls-1" points="190.61 98.74 195.13 94.23 195.15 87.26 194.06 86.17 194.04 92.9 189.58 97.35 192.53 105.48 195.1 109.94 187.02 109.94 188.11 111.03 189.13 111.03 195.9 111.03 193.66 107.14 190.61 98.74"/><path class="cls-1" d="M240.12,28.83l-.88-.87,2.06,6.39-4.42-1.83-5.16-.41-1.42.61-.71,1.36v1.39l1.1,1.18V35.48c.33-.63.5-.95.82-1.58l1.64-.7c2.13.16,3.2.24,5.33.42l3.68,1.53c-.6-1.86-.9-2.78-1.49-4.64C240.44,29.84,240.34,29.5,240.12,28.83Z"/><path class="cls-1" d="M265,52.1l-2.3,6.63-.32,0c-6.05-.65-9-.94-14.71-1.47h-.07l-1.5-.13,1,1,2,.18c5.9.55,8.84.84,14.72,1.48.58-1.66.87-2.49,1.44-4.15l.83-2.37Z"/><path class="cls-1" d="M241,51.05l-.13.12c-2.14,1.95-3.2,2.93-5.33,4.89l-.13.11h-.17c-4-.32-6-.47-10.17-.75l-.64,0,1.06,1.07,1.09.07c4.07.28,6.1.43,10.18.76l5.33-4.89c0-3,0-4.55,0-7.59L241,43.59Z"/><polygon class="cls-1" points="217.35 85.01 217.62 83.86 217.97 82.35 216.81 81.19 216.27 83.51 222.32 106.12 224.22 109.94 215.57 109.94 216.66 111.03 218.37 111.03 225.07 111.03 223.44 107.75 217.35 85.01"/><path class="cls-1" d="M135.37,27.7l-.07,25.75h-.39c-1.8,0-2.7.07-4.51.13H130l1.1,1.1.83,0,4.51-.13q0-12.7.07-25.41l.42-1.65c.16-.66.25-1,.41-1.65l-1.16-1.16Z"/><polygon class="cls-1" points="214.42 103.19 214.21 102.97 206.75 102.97 206.54 103.19 205.75 106.29 206.2 109.94 198.56 109.94 199.66 111.03 201.92 111.03 207.24 111.03 206.84 107.75 207.67 104.48 208.08 104.07 214.64 104.07 214.42 103.19"/><path class="cls-1" d="M95.23,48.65c0-5.38,0-8.08,0-13.48.33-.68.49-1,.82-1.69l1.64-.93,3.29-.22.12.06-.27-.52-1.41-.62-3.1.19-1.31.75-.14.08-.73,1.5,0,13.34.7,1.37Z"/><path class="cls-1" d="M81.23,27.64c-2.76.23-4.34.36-7.19.62l-5.54,13a3,3,0,0,1-.12.29l-.58,2.71-.61-2.7c-2-4.3-3-6.47-4.93-10.78l-.6-1.31c-2.86.29-4.44.46-7.24.77.14.52.24.95.36,1.4l.35,1.44q0,11-.05,22l0,.24-.26,1.07c-.15.59-.27,1.09-.43,1.75l1.48-.16,4.45-.47-.26-1-.43-1.7,0-.17,0-14.69L59,35.1l1.77,4.58L62.31,43c2,4.42,3.13,6.91,5.13,11.35l.11-.26,3.76-8.94,2.88-6.83,1.82-5-.65,5.14,0,14.8-.7,2.81,2.26-.2,4.3-.35-.71-2.86.08-22.23Z"/><polygon class="cls-1" points="111.13 109.14 113.06 103.41 109.38 104.61 104.57 104.61 102.32 103.48 101.2 101.23 101.2 101.14 101.23 89.16 102.36 86.91 104.62 85.78 109.22 85.81 112.69 86.98 110.79 81.25 101 81.25 95.48 86.76 95.43 103.64 100.92 109.14 111.13 109.14"/><path class="cls-1" d="M74.57,39.46l-2.52,6q-1.89,4.47-3.77,9l-.46,1.09h-.1l1.12,1.12H69l.37-.86,5.14-12.24Z"/><path class="cls-1" d="M124.77,29.67l4.44,8.77v-.57l-5.05-10c-.33-.65-.5-1-.82-1.61l-.59-.59Z"/><polygon class="cls-1" points="113.94 88.25 109.03 86.58 104.81 86.58 102.96 87.5 102.03 89.35 102 101.05 102.92 102.89 103.32 103.1 103.09 102.63 103.12 90.75 104.15 88.7 106.2 87.67 110.59 87.67 114.81 89.11 113.07 83.86 112.57 82.35 111.7 81.48 113.94 88.25"/><path class="cls-1" d="M103,54c2-2.15,3.1-3.27,5.13-5.4q0-6.48,0-13V30.91l-.22-.21-4.85-4.59c-4.09.24-6.23.37-10.33.66l-4.29,4.59-.84.9L87.57,50l1.51,1.4c1.43,1.33,2.17,2,3.55,3.31C96.76,54.38,98.89,54.25,103,54ZM93.34,47.2l0-13.62.92-1.88.35-.2,1.4-.79.08-.05,3.47-.22.09,0,1.64.72.12.06.93,1.8v.1l0,13.61-.92,1.89-.11.06-1.6.89-.08,0-.13,0-3.28.21h-.09l-1-.43-.74-.31-.13-.06-.93-1.8Z"/><path class="cls-1" d="M61.51,43.16l-1.09-2.41,0,13.82c.16.66.29,1.15.41,1.65l.5,1.94-.46.05c-2,.2-2.94.3-4.91.52l-1.72.18L55.34,60l2-.22,4.91-.52c-.33-1.27-.49-1.92-.81-3.19C61.49,50.84,61.5,47.92,61.51,43.16Z"/><path class="cls-1" d="M63,30.42l4.8,10.49.18-.42-3.85-8.42c-.29-.62-.44-.94-.72-1.56l-.68-.69Z"/><path class="cls-2" d="M137.66,71.5h-2.24L133,65h2.49l1.25,3.84L138,65h2.15Z"/><path class="cls-2" d="M142.66,71.5V65h5.55v1.68H145v1h2.12v1H145v1h3.22V71.5Z"/><path class="cls-2" d="M155.49,71.5c-.33,0-.52-.48-.52-1V69.6a.49.49,0,0,0-.53-.56h-.93V71.5h-2.33V65H155c1.31,0,2.2.73,2.2,1.74V67a1.43,1.43,0,0,1-1.13,1.39,1.33,1.33,0,0,1,1.16,1.34v.73a1.93,1.93,0,0,0,.29,1.06v0Zm-.58-4.36c0-.4-.2-.57-.68-.57h-.72V68h.72c.48,0,.68-.18.68-.56Z"/><path class="cls-2" d="M163.06,71.65a5.24,5.24,0,0,1-3.37-1.2l1.09-1.25a4.12,4.12,0,0,0,2.33.94c.57,0,.76-.22.76-.49,0-.86-3.75-.49-3.75-2.71,0-1.13,1.15-2.12,3-2.12a4.22,4.22,0,0,1,3,1.23l-1.23,1a3.06,3.06,0,0,0-1.85-.76c-.48,0-.73.17-.73.43,0,.87,3.79.59,3.79,2.7C166.11,70.69,164.81,71.65,163.06,71.65Z"/><path class="cls-2" d="M172.05,71.65c-2.1,0-3.18-1.1-3.18-2.44V65h2.34V69.1c0,.51.33.82.93.82s.93-.31.93-.82V65h2.1v4.23C175.17,70.55,174.16,71.65,172.05,71.65Z"/><path class="cls-2" d="M181,71.65a5.23,5.23,0,0,1-3.36-1.2l1.08-1.25a4.17,4.17,0,0,0,2.33.94c.58,0,.77-.22.77-.49,0-.86-3.75-.49-3.75-2.71,0-1.13,1.14-2.12,2.95-2.12a4.26,4.26,0,0,1,3.06,1.23l-1.24,1a3,3,0,0,0-1.85-.76c-.48,0-.73.17-.73.43,0,.87,3.8.59,3.8,2.7C184,70.69,182.74,71.65,181,71.65Z"/><rect class="cls-2" x="189.68" y="67.76" width="29.11" height="0.66"/><rect class="cls-2" x="189.68" y="65.95" width="31.63" height="0.38"/><rect class="cls-2" x="189.68" y="69.84" width="31.63" height="0.38"/><rect class="cls-2" x="97.38" y="67.76" width="29.11" height="0.66"/><rect class="cls-2" x="94.86" y="65.95" width="31.63" height="0.38"/><rect class="cls-2" x="94.86" y="69.84" width="31.63" height="0.38"/><path class="cls-1" d="M80.48,140.79h-8.7V128.24h8.53c3,0,4.76,1.26,4.76,3.39v.15a3,3,0,0,1-2.66,2.73c1.86.32,2.8,1.53,2.8,2.68v.21C85.21,139.52,83.44,140.79,80.48,140.79Zm-.32-8.28c0-.63-.39-.93-1.35-.93h-2v2.09h2c1,0,1.35-.32,1.35-1Zm0,3.85c0-.64-.39-.94-1.35-.94h-2v2.09h2c1,0,1.35-.3,1.35-.94Z"/><path class="cls-1" d="M89.27,140.79V128.24h12.48v3.5H94.33v1.76h4.89v1.8H94.33V137h7.42v3.79Z"/><path class="cls-1" d="M106,140.79V128.24h12.47v3.5H111v1.76h4.9v1.8H111V137h7.42v3.79Z"/><path class="cls-1" d="M132.31,140.79c-.7,0-1.13-.87-1.13-1.94v-1.53c0-.68-.25-1.21-1.17-1.21h-2.3v4.68h-5V128.24h8.66c2.95,0,4.76,1.53,4.76,3.5v.31a2.94,2.94,0,0,1-2.57,2.67,2.73,2.73,0,0,1,2.65,2.75v1.23a3.18,3.18,0,0,0,.63,2v0Zm-1.26-8.09c0-.8-.48-1.12-1.66-1.12h-1.68v2.53h1.68c1.18,0,1.66-.37,1.66-1.14Z"/><path class="cls-1" d="M163,128l-17.34,4.33v-1.13l.39.18h.37l6.79-1.69,1.13-.56.75-.76.19-.37-.19-.38h-.38l-.37.19-.19.37.19.38H154l-.37-.38v-.56l.75-.76h1.13l.57.57v1l-1.33.85,6.79-1.7h2.27v.56Zm.38,9H163l-6.78,1.69-1.13.56-.75.76-.19.38.19.38h.37l.38-.19.19-.37-.19-.39h.38l.38.39v.56l-.76.75H154l-.57-.56v-1l1.32-.85-6.78,1.7h-2.27v-.56l.76.18,17.35-4.34v1.14Zm-13.62,1.46.09-.71-.11-.51-.08-.07-1.37.34-.08.11-.13.57.08.68-1.91.49.36-.81,1.16-5.13-.12-.55,2.79-.7-.13.61,1.15,4.56.34.62Zm-.76-4.37,0-.29,0,.3-.41,2,.07.08.76-.2.07-.11Zm7.79-2.78v5.41l-1.11.28-1.81-2.79-.17-.39.05.43v2.53l.19.65-1.81.46.21-.76v-4.73l-.25-.62,1.78-.44,1.43,2.21.17.4,0-.45v-1.84l-.22-.65,1.78-.46Zm4.79,4.2-3.58.91.2-.75V131l-.2-.64,3.58-.9,1.14.92V134Zm-.5-4-.2-.39-.42-.11-.52.13-.07.11v3.11l.1.1.49-.14.42-.32.2-.46Z"/><path class="cls-1" d="M177.63,141.15c-3.29,0-5-1.54-5-4.08v-.56H176V137c0,.85.51,1.28,1.4,1.28s1.28-.34,1.28-1c0-1.66-5.86-1.58-5.86-5.44,0-2.22,1.76-4,4.77-4s4.71,1.55,4.71,3.91v.68h-3.41v-.45a1.15,1.15,0,0,0-1.29-1.27c-.71,0-1.09.34-1.09,1,0,1.62,5.9,1.5,5.9,5.34C182.44,139.27,180.85,141.15,177.63,141.15Z"/><path class="cls-1" d="M191.82,136.45h-2.18v4.34H185.7V128.24h6.12c2.19,0,3.65,1.32,3.65,3.29v1.62C195.47,135.16,194,136.45,191.82,136.45Zm-.13-4.65c0-.51-.28-.76-.85-.76h-1.2v3.07h1.2c.57,0,.85-.27.85-.76Z"/><path class="cls-1" d="M198.66,140.79V128.24h3.94v12.55Z"/><path class="cls-1" d="M213.2,140.79c-.58,0-.91-1-.91-1.94V137c0-.54-.24-.94-.86-.94h-1.28v4.77h-3.94V128.24h6c2.45,0,3.73,1.28,3.73,3.15v1.15a2.19,2.19,0,0,1-1.74,2.18,2.07,2.07,0,0,1,1.82,2.08v1.9a4.39,4.39,0,0,0,.49,2v0Zm-1-9c0-.55-.28-.76-.92-.76h-1.11v2.78h1.11c.64,0,.92-.21.92-.75Z"/><path class="cls-1" d="M219.5,140.79V128.24h3.93v12.55Z"/><path class="cls-1" d="M233.46,131.33v9.46h-3.93v-9.46h-3v-3.09h10v3.09Z"/><path class="cls-1" d="M243.81,141.15c-3.29,0-5-1.54-5-4.08v-.56h3.41V137c0,.85.51,1.28,1.4,1.28s1.28-.34,1.28-1c0-1.66-5.86-1.58-5.86-5.44,0-2.22,1.77-4,4.77-4s4.71,1.55,4.71,3.91v.68h-3.42v-.45a1.15,1.15,0,0,0-1.28-1.27c-.71,0-1.09.34-1.09,1,0,1.62,5.9,1.5,5.9,5.34C248.62,139.27,247,141.15,243.81,141.15Z"/></svg>