<svg id="Layer_1" data-name="Layer 1" xmlns="http://www.w3.org/2000/svg" viewBox="0 0 114.2 116.22"><defs><style>.cls-1{fill:#d8d4bf;}</style></defs><title>thirteenonly</title><path class="cls-1" d="M21.39,59.63c0,11,.67,15.71,8.12,16.66v4.33c-5.42-.27-9.74-.68-14.75-.68s-9.34.41-14.76.68V76.29c7.45-1,8.13-5.69,8.13-16.66v-36C8.13,12.68,7.45,7.94,0,7V2.66c5.42.27,9.74.67,14.76.67s9.33-.4,14.75-.67V7c-7.45,1-8.12,5.69-8.12,16.66Z"/><path class="cls-1" d="M111.91,7C104,13,92.89,33.46,82,42.44l.35.35a9.77,9.77,0,0,1,4.05-.7c13.74,0,27.83,11.26,27.83,30.81,0,24.48-22.72,43.32-49.13,43.32-9.86,0-19.9-2.82-28.88-6.87l3.17-6.51c6.87,3,14.44,5.63,22,5.63,20.78,0,38.21-15.49,38.21-36.1,0-12.68-7.22-22.54-19.54-22.54-4.58,0-9.16,2.12-13.21,4.41l-3.35-4.58C80.39,35.75,84.44,29.76,95,15H74.22c-19.54,0-22.89,5.81-28.35,15.49l-5.1-1.93C44.64,19,48.16,9.51,51.51,0l4.57,1.06c1.06,2.46,3.35,2.46,13,2.46,23.59,0,33.1-.18,42.79-.88Z"/></svg>