<?xml version="1.0" encoding="utf-8"?>
<!-- Generator: Adobe Illustrator 22.1.0, SVG Export Plug-In . SVG Version: 6.00 Build 0)  -->
<svg version="1.1" id="Layer_1" xmlns="http://www.w3.org/2000/svg" xmlns:xlink="http://www.w3.org/1999/xlink" x="0px" y="0px"
	 viewBox="0 0 219 113.1" style="enable-background:new 0 0 219 113.1;" xml:space="preserve">
<style type="text/css">
	.st0{fill:#D8D3BD;}
</style>
<title>thirteenlogoshort</title>
<g id="Layer_2_1_">
	<g id="Layer_1-2">
		<path class="st0" d="M127.5,55.4l2.2,1.1c-1.4,1.8-3.6,2.9-5.9,2.7c-4,0-6.6-2.1-6.6-5.7s2.6-5.7,6.7-5.7c2.2-0.1,4.4,0.9,5.7,2.7
			l-2.3,1.1c-0.8-1.2-2.1-1.8-3.5-1.7c-2.5,0-4.2,1.2-4.2,3.6s1.7,3.6,4.2,3.6C125.3,57.3,126.7,56.6,127.5,55.4z"/>
		<path class="st0" d="M145.6,56.9v2h-11V48.3h10.8v2H137v2.2h7v2h-7v2.4H145.6z"/>
		<path class="st0" d="M160.7,56.9V59h-10.1V48.3h2.4v8.7H160.7z"/>
		<path class="st0" d="M176.8,55.7c0,2.1-2,3.7-5.8,3.7c-2.4,0.1-4.7-0.7-6.5-2.2l1.4-1.7c1.4,1.3,3.3,1.9,5.2,1.8
			c2.2,0,3.3-0.4,3.3-1.3c0-0.9-1.1-1.1-3.5-1.4c-3.1-0.3-5.9-0.9-5.9-3.2s2.4-3.4,5.7-3.4c2-0.1,4.1,0.4,5.8,1.5l-1.4,1.7
			c-1.3-0.9-2.8-1.4-4.4-1.3c-1.5,0-3.2,0.2-3.2,1.2c0,1,1.5,1,3.7,1.2C174.4,52.6,176.8,53.4,176.8,55.7z"/>
		<path class="st0" d="M181.9,58.9V48.3h2.4v10.7H181.9z"/>
		<path class="st0" d="M202.1,48.3v5.6c0,3.2-2.1,5.4-6,5.4c-3.9,0-6-2.2-6-5.4v-5.6h2.4v5.5c0.1,2,1.8,3.4,3.8,3.3
			c1.8-0.1,3.2-1.5,3.3-3.3v-5.5H202.1z"/>
		<path class="st0" d="M219,55.7c0,2.1-2,3.7-5.8,3.7c-2.4,0.1-4.7-0.7-6.5-2.2l1.4-1.7c1.4,1.3,3.3,1.9,5.2,1.8
			c2.2,0,3.3-0.4,3.3-1.3c0-0.9-1.1-1.1-3.6-1.4c-3-0.3-5.9-0.9-5.9-3.2s2.4-3.4,5.7-3.4c2-0.2,4.1,0.4,5.8,1.5l-1.3,1.7
			c-1.3-0.9-2.8-1.3-4.4-1.3c-1.5,0-3.2,0.2-3.2,1.2c0,1,1.5,1,3.7,1.2C216.6,52.6,219,53.4,219,55.7z"/>
		<path class="st0" d="M20.6,4.7c0,0-0.2,5.5-0.2,8.4l-0.2,29.5c1.1,19.1,0.1,23,6.4,23c5.3,0,3-5.2,5.5-2.9c0.9,0.8,2,6.1,0.9,6.1
			c-2.3,0-5-0.3-16.7-0.3s-11.7,0-14,0H0c0,0-1-2.2,5.3-2.2c10.3,0,8.1-6.7,8.1-23.7V17c0,0-2.4,1.3-3,1.4c-5.6,1.7-7.5-2.6-6.2-1.9
			c3.7,1.7,6.6-0.8,8.7-3.7c2.7-3.5-0.2-8.7,5.1-9.5c0.5,0,0.9,0,1.4,0C20.7,3.4,20.6,4.7,20.6,4.7z"/>
		<path class="st0" d="M64.4,47c11.9-4.1,26.4-1.6,30.7,5.8c16.7,28.9-22.8,62.5-51.8,60.2c-5.1-0.4-4.7-2-5.1-4
			c-0.2-1,1.7,1.3,7.9,1.1c14.9-0.6,38.7-17.7,35.9-40.8c-2-16.7-15.1-18.2-22.4-17.5c-4.2,0.4-7.3,2.2-8.5,2.2
			c-1.2,0-1.7,0-2.1-1.5c-0.3-1.5,1.7-2.8,8.2-5.8c7.9-3.7,21.3-7.2,18.8-26.5c-0.8-7.3-7-12.8-14.4-12.6
			c-12.3-0.3-16.4,4.4-19.9,11.4c-1.2,2.4-3.3,6-2.4,0.6c1-6,9.6-17.7,22.2-19.4c10.9-1.5,25.1,2.1,27.3,16
			C91.9,34.9,72.9,44.1,64.4,47z"/>
	</g>
</g>
</svg>
