<?xml version="1.0" encoding="utf-8"?>
<!-- Generator: Adobe Illustrator 22.1.0, SVG Export Plug-In . SVG Version: 6.00 Build 0)  -->
<svg version="1.1" id="Layer_1" xmlns="http://www.w3.org/2000/svg" xmlns:xlink="http://www.w3.org/1999/xlink" x="0px" y="0px"
	 viewBox="0 0 194.8 62.8" style="enable-background:new 0 0 194.8 62.8;" xml:space="preserve">
<style type="text/css">
	.st0{fill:#D8D3BD;}
</style>
<g>
	<g>
		<path class="st0" d="M144.4,30.8l1.2,0.6c-0.5,0.8-1.7,1.5-3.2,1.5c-2.2,0-3.6-1.2-3.6-3.1c0-1.9,1.4-3.1,3.7-3.1
			c1.5,0,2.6,0.7,3.1,1.5l-1.2,0.6c-0.4-0.6-1-0.9-1.9-0.9c-1.4,0-2.3,0.7-2.3,1.9c0,1.3,0.9,1.9,2.3,1.9
			C143.3,31.8,144,31.5,144.4,30.8z"/>
		<path class="st0" d="M154.3,31.6v1.1h-6v-5.8h5.9V28h-4.6v1.2h3.8v1.1h-3.8v1.3H154.3z"/>
		<path class="st0" d="M162.5,31.6v1.1h-5.4v-5.8h1.3v4.7H162.5z"/>
		<path class="st0" d="M171.3,31c0,1.1-1.1,1.9-3.1,1.9c-1.5,0-2.7-0.4-3.6-1.2l0.8-0.9c0.7,0.7,1.6,1,2.8,1c1.2,0,1.8-0.2,1.8-0.7
			c0-0.5-0.6-0.6-1.9-0.7c-1.7-0.1-3.2-0.5-3.2-1.8c0-1.2,1.3-1.9,3.1-1.9c1.3,0,2.4,0.3,3.1,0.9l-0.7,0.9c-0.6-0.5-1.4-0.7-2.4-0.7
			c-0.8,0-1.8,0.1-1.8,0.7c0,0.5,0.8,0.5,2,0.6C170,29.3,171.3,29.7,171.3,31z"/>
		<path class="st0" d="M174,32.7v-5.8h1.3v5.8H174z"/>
		<path class="st0" d="M185,26.9V30c0,1.7-1.2,2.9-3.3,2.9c-2.1,0-3.3-1.2-3.3-2.9v-3.1h1.3v3c0,1.2,0.7,1.9,1.9,1.9
			s1.9-0.7,1.9-1.9v-3H185z"/>
		<path class="st0" d="M194.3,31c0,1.1-1.1,1.9-3.1,1.9c-1.5,0-2.7-0.4-3.6-1.2l0.8-0.9c0.7,0.7,1.6,1,2.8,1c1.2,0,1.8-0.2,1.8-0.7
			c0-0.5-0.6-0.6-1.9-0.7c-1.7-0.1-3.2-0.5-3.2-1.8c0-1.2,1.3-1.9,3.1-1.9c1.3,0,2.4,0.3,3.1,0.9l-0.7,0.9c-0.6-0.5-1.4-0.7-2.4-0.7
			c-0.8,0-1.8,0.1-1.8,0.7c0,0.5,0.8,0.5,2,0.6C193,29.3,194.3,29.7,194.3,31z"/>
	</g>
	<g>
		<path class="st0" d="M6.9,27.9H4.3v4.7H3v-4.7H0.5v-1.1h6.4V27.9z"/>
		<path class="st0" d="M16.1,26.7v5.8h-1.3v-2.4h-4v2.4H9.4v-5.8h1.3V29h4v-2.3H16.1z"/>
		<path class="st0" d="M19.3,32.6v-5.8h1.3v5.8H19.3z"/>
		<path class="st0" d="M28.9,32.6l-1.7-2h-2.1v2h-1.3v-5.8h4c1.4,0,2.5,0.7,2.5,1.9c0,1-0.7,1.6-1.6,1.8l1.8,2.1H28.9z M27.8,29.5
			c0.7,0,1.2-0.2,1.2-0.8c0-0.6-0.5-0.8-1.2-0.8h-2.6v1.6H27.8z"/>
		<path class="st0" d="M38.8,27.9h-2.5v4.7H35v-4.7h-2.5v-1.1h6.4V27.9z"/>
		<path class="st0" d="M47.4,31.5v1.1h-6v-5.8h5.9v1.1h-4.6v1.2h3.8v1.1h-3.8v1.3H47.4z"/>
		<path class="st0" d="M56.2,31.5v1.1h-6v-5.8h5.9v1.1h-4.6v1.2h3.8v1.1h-3.8v1.3H56.2z"/>
		<path class="st0" d="M65.6,26.7v5.8h-1.2l-4.2-4.2v4.2H59v-5.8h1.4l3.9,4v-4H65.6z"/>
	</g>
	<g>
		<path class="st0" d="M86.2,3.2c0,0-0.1,3-0.1,4.6l0,16.1c0.6,10.4,0.1,12.5,3.5,12.5c2.9,0,1.6-2.8,3-1.6c0.5,0.4,1.1,3.3,0.5,3.3
			c-1.3,0-2.7-0.2-9.1-0.2c-6.3,0-6.4,0-7.6,0c-1.2,0-0.5,0-1.2,0c0,0-0.5-1.2,2.9-1.2c5.6,0,4.4-3.6,4.4-12.9l0-13.9
			c0,0-1.4,0.7-1.7,0.8c-3,0.9-4.1-1.4-3.4-1c2,0.9,3.6-0.5,4.7-2c1.5-2-0.1-4.8,2.8-5.2c0,0-0.1,0,0.8,0
			C86.3,2.5,86.2,3.2,86.2,3.2z"/>
		<path class="st0" d="M110.1,26.3c6.5-2.2,14.4-0.9,16.7,3.2c9.1,15.7-12.4,34-28.2,32.8c-2.8-0.2-2.5-1.1-2.8-2.2
			c-0.1-0.6,0.9,0.7,4.3,0.6c8.1-0.3,21.1-9.6,19.6-22.2c-1.1-9.1-8.2-9.9-12.2-9.5c-2.3,0.2-4,1.2-4.6,1.2c-0.7,0-0.9,0-1.1-0.8
			c-0.2-0.8,0.9-1.5,4.4-3.1c4.3-2,11.6-3.9,10.2-14.4c-0.3-2.5-2.1-6.7-7.8-6.9c-6.7-0.2-8.9,2.4-10.8,6.2
			c-0.7,1.3-1.8,3.3-1.3,0.3c0.6-3.3,5.2-9.7,12.1-10.6c5.9-0.8,13.7,1.1,14.8,8.7C125,19.6,114.7,24.7,110.1,26.3z"/>
	</g>
</g>
</svg>
