<svg id="Layer_1" data-name="Layer 1" xmlns="http://www.w3.org/2000/svg" viewBox="0 0 320.4 164"><defs><style>.cls-1{opacity:0.9;}.cls-2{fill:#1e0d1b;}</style></defs><title>wmpurple</title><g class="cls-1"><path class="cls-2" d="M112.65,106.12a13.37,13.37,0,0,0,9.8-3.63c2.47-2.43,3.69-5.8,3.69-10.12V46.8h-2.79V92.37c0,3.73-1,6.48-3.06,8.27a11.22,11.22,0,0,1-7.64,2.68,11.63,11.63,0,0,1-7.84-2.68c-2.08-1.79-3.11-4.54-3.11-8.27V46.8H98.9V92.37c0,4.32,1.28,7.69,3.81,10.12A13.86,13.86,0,0,0,112.65,106.12Z"/><path class="cls-2" d="M76.75,106.12a13.6,13.6,0,0,0,9.86-3.63q3.77-3.64,3.76-10.12V46.8H87.56V92.37c0,3.73-1,6.48-3.11,8.27a12.52,12.52,0,0,1-15.48,0c-2-1.79-3-4.54-3-8.27V46.8h-2.8V92.37q0,6.48,3.76,10.12A13.61,13.61,0,0,0,76.75,106.12Z"/><path class="cls-2" d="M207.88,56.6A13.55,13.55,0,0,0,198,60.24q-3.77,3.61-3.76,10.12v45.56h2.8V70.36c0-3.75,1-6.5,3.05-8.28a12.55,12.55,0,0,1,15.48,0c2.08,1.78,3.11,4.53,3.11,8.28v45.56h2.81V70.36q0-6.49-3.76-10.12A13.59,13.59,0,0,0,207.88,56.6Z"/><path class="cls-2" d="M243.78,56.6a13.84,13.84,0,0,0-9.94,3.64C231.31,62.65,230,66,230,70.36v45.56h2.8V70.36c0-3.75,1-6.5,3.13-8.28a11.57,11.57,0,0,1,7.82-2.67,11.22,11.22,0,0,1,7.65,2.67c2,1.78,3,4.53,3,8.28v45.56h2.8V70.36q0-6.49-3.69-10.12A13.35,13.35,0,0,0,243.78,56.6Z"/><polygon class="cls-2" points="164.34 84.48 164.34 102.94 167.14 102.94 167.14 87.28 182.68 87.28 182.68 115.92 185.47 115.92 185.47 87.28 185.47 84.48 182.68 84.48 164.34 84.48"/><polygon class="cls-2" points="152.75 72.88 137.73 72.88 137.73 46.8 134.92 46.8 134.92 72.88 134.92 75.83 137.73 75.83 155.68 75.83 155.68 56.33 152.75 56.33 152.75 72.88"/><path class="cls-2" d="M134.92,84.48v7.89a28,28,0,0,1-1.39,9,19.78,19.78,0,0,1-4.15,7.12,17.86,17.86,0,0,1-6.93,4.64,26.47,26.47,0,0,1-9.8,1.66c-7.48,0-13.49-2.71-18.08-8.14a22.23,22.23,0,0,1-17.82,8.14,26.62,26.62,0,0,1-9.82-1.66,18.67,18.67,0,0,1-7-4.64,19.32,19.32,0,0,1-4.2-7.12,28,28,0,0,1-1.39-9V46.8H51.53V92.37a32.7,32.7,0,0,0,1.54,10.25,20.89,20.89,0,0,0,12.47,13.3,29.77,29.77,0,0,0,11.21,1.91,27,27,0,0,0,10.51-1.91,22.09,22.09,0,0,0,7.43-5,23.79,23.79,0,0,0,7.52,5,26.36,26.36,0,0,0,10.44,1.91,29.5,29.5,0,0,0,11.08-1.91,20.89,20.89,0,0,0,12.47-13.3,32.42,32.42,0,0,0,1.53-10.25V87.29h15v15.65h2.93V84.48H134.92Z"/><path class="cls-2" d="M267.33,60.17a20.86,20.86,0,0,0-4.64-8,21.91,21.91,0,0,0-7.83-5.22A29.5,29.5,0,0,0,243.78,45a28.32,28.32,0,0,0-10.56,1.84,21.22,21.22,0,0,0-7.51,4.91,23.28,23.28,0,0,0-7.46-4.91A26.8,26.8,0,0,0,207.88,45a29.75,29.75,0,0,0-11.2,1.91,22,22,0,0,0-7.84,5.22,21,21,0,0,0-4.64,8,32.82,32.82,0,0,0-1.52,10.19v2.52H167.14V56.33h-2.8v19.5h21.13V70.36a27.13,27.13,0,0,1,1.4-8.92,18.89,18.89,0,0,1,11.2-11.76A25.54,25.54,0,0,1,207.88,48a23.83,23.83,0,0,1,10.06,2,22.58,22.58,0,0,1,7.89,6.17A22.37,22.37,0,0,1,243.78,48a25.54,25.54,0,0,1,9.81,1.73,19,19,0,0,1,6.93,4.69,20,20,0,0,1,4.15,7.07,27.4,27.4,0,0,1,1.39,8.92v45.56h2.81V70.36A32.82,32.82,0,0,0,267.33,60.17Z"/><path class="cls-2" d="M258.23,56.22c-3.26-3.65-8.09-5.47-14.45-5.47q-14.64,0-18.07,12.6a13.62,13.62,0,0,0-6-9.23,20.53,20.53,0,0,0-11.84-3.37q-9.56,0-14.51,5.47c-3.31,3.66-5,8.35-5,14.14v8.26h-27V56.33h-2.93V78.62H132V46.8h-2.92V92.37q0,7.63-4.27,12.22t-12.15,4.59q-8,0-12.28-4.59T96.1,92.37V46.8H93.3V92.37q0,7.63-4.33,12.22t-12.22,4.59q-8,0-12.23-4.59t-4.2-12.22V46.8H57.26V92.37q0,8.66,5,14.13T76.75,112q7.13,0,11.7-3t6.24-9.55a13.54,13.54,0,0,0,6.06,9.23,20.92,20.92,0,0,0,11.9,3.37q9.55,0,14.44-5.47c3.28-3.65,4.9-8.36,4.9-14.13V81.68h26.49v21.26h2.93V81.68h27v34.24h3.06V70.36q0-7.65,4.2-12.17t12.22-4.52q7.91,0,12.22,4.52t4.33,12.17v45.56h2.8V70.36q0-7.65,4.28-12.17c2.83-3,6.93-4.52,12.27-4.52s9.32,1.51,12.16,4.52,4.26,7.07,4.26,12.17v45.56h2.95V70.36C263.15,64.57,261.5,59.88,258.23,56.22Z"/></g></svg>