<svg id="Layer_1" data-name="Layer 1" xmlns="http://www.w3.org/2000/svg" viewBox="0 0 167.67 42.38"><defs><style>.cls-1{fill:#d8d4bf;}</style></defs><title>wordmark</title><path class="cls-1" d="M26.85,37,30,38.55c-1.41,2.12-4.29,3.83-8.21,3.83-5.62,0-9.28-3-9.28-8s3.66-8,9.43-8a9.51,9.51,0,0,1,8,3.8l-3.14,1.56a5.38,5.38,0,0,0-4.92-2.41c-3.55,0-5.9,1.71-5.9,5s2.35,5,5.9,5A5.44,5.44,0,0,0,26.85,37Z"/><path class="cls-1" d="M52.22,39v2.87H36.8v-15H52V29.8H40.2v3.08h9.86v2.87H40.2V39Z"/><path class="cls-1" d="M73.44,39v2.95h-14v-15h3.42V39Z"/><path class="cls-1" d="M96,37.37c0,3-2.8,5-8.1,5a13.74,13.74,0,0,1-9.16-3l2-2.33A10.21,10.21,0,0,0,88,39.51c3,0,4.58-.58,4.58-1.82s-1.54-1.58-5-1.88c-4.27-.36-8.25-1.3-8.25-4.51s3.34-4.83,8-4.83a13,13,0,0,1,8,2.29l-1.88,2.37a9.84,9.84,0,0,0-6.11-1.8c-2,0-4.52.35-4.52,1.71s2.14,1.41,5.11,1.65C92.63,33.08,96,34.08,96,37.37Z"/><path class="cls-1" d="M103,41.91v-15h3.42v15Z"/><path class="cls-1" d="M131.3,26.94v7.91c0,4.49-3,7.53-8.41,7.53s-8.4-3-8.4-7.53V26.94h3.42v7.65c0,3,1.75,4.79,5,4.79s5-1.79,5-4.79V26.94Z"/><path class="cls-1" d="M155.19,37.37c0,3-2.8,5-8.11,5a13.73,13.73,0,0,1-9.15-3l2-2.33a10.21,10.21,0,0,0,7.27,2.48c3,0,4.58-.58,4.58-1.82s-1.54-1.58-5-1.88c-4.27-.36-8.25-1.3-8.25-4.51s3.34-4.83,8-4.83a13.06,13.06,0,0,1,8,2.29l-1.88,2.37a9.85,9.85,0,0,0-6.12-1.8c-2,0-4.51.35-4.51,1.71s2.14,1.41,5.11,1.65C151.83,33.08,155.19,34.08,155.19,37.37Z"/><path class="cls-1" d="M16.47,3H9.92V15H6.5V3H0V0H16.47Z"/><path class="cls-1" d="M40.12,0V15H36.7V8.87H26.5V15H23.08V0H26.5V5.88H36.7V0Z"/><path class="cls-1" d="M48.41,15V0h3.42V15Z"/><path class="cls-1" d="M73.23,15l-4.3-5.09H63.52V15h-3.4V0H70.45c3.65,0,6.41,1.69,6.41,4.94,0,2.54-1.69,4.13-4.17,4.7L77.31,15Zm-3-7.91c1.8,0,3.13-.43,3.13-2.1s-1.33-2.09-3.13-2.09H63.5V7.06Z"/><path class="cls-1" d="M98.75,3H92.2V15H88.78V3h-6.5V0H98.75Z"/><path class="cls-1" d="M120.78,12.1V15H105.36V0h15.21V2.87H108.76V5.94h9.86V8.81h-9.86V12.1Z"/><path class="cls-1" d="M143.41,12.1V15H128V0h15.2V2.87H131.4V5.94h9.85V8.81H131.4V12.1Z"/><path class="cls-1" d="M167.67,0V15h-3L153.94,4.15V15h-3.31V0h3.63l10.1,10.26V0Z"/></svg>